<svg width="216" height="57" viewBox="0 0 216 57" fill="none" xmlns="http://www.w3.org/2000/svg">
<path d="M2 27.7115L32.6418 1.99998" stroke="#F7F7F7" stroke-width="4" stroke-linecap="round"/>
<path d="M2 28.7115L32.6418 54.423" stroke="#F7F7F7" stroke-width="4" stroke-linecap="round"/>
<path d="M40.9388 45.7115V11.1995H43.6268C44.1068 11.1995 44.4588 11.2635 44.6828 11.3915C44.9388 11.4875 45.1948 11.7115 45.4508 12.0635L64.7948 37.1675C64.7308 36.7195 64.6828 36.2875 64.6508 35.8715C64.6508 35.4235 64.6508 35.0075 64.6508 34.6235V11.1995H69.2588V45.7115H66.5708C66.1868 45.7115 65.8508 45.6475 65.5628 45.5195C65.3068 45.3595 65.0348 45.1035 64.7468 44.7515L45.4028 19.7435C45.4348 20.1595 45.4508 20.5595 45.4508 20.9435C45.4828 21.3275 45.4988 21.7275 45.4988 22.1435V45.7115H40.9388ZM37.4348 45.7115V43.5035C37.4348 43.1835 37.5148 42.9275 37.6748 42.7355C37.8348 42.5435 38.0748 42.4155 38.3948 42.3515L41.7068 41.6315L42.2828 45.7115H37.4348ZM44.5868 45.7115L45.1148 41.6315L48.4748 42.3515C48.7948 42.4155 49.0348 42.5435 49.1948 42.7355C49.3548 42.9275 49.4348 43.1835 49.4348 43.5035V45.7115H44.5868ZM42.2828 11.1995L41.7068 15.2795L38.3948 14.5595C38.0748 14.4955 37.8348 14.3675 37.6748 14.1755C37.5148 13.9835 37.4348 13.7275 37.4348 13.4075V11.1995H42.2828ZM65.6108 11.1995L65.0348 15.2795L61.7228 14.5595C61.4028 14.4955 61.1628 14.3675 61.0028 14.1755C60.8428 13.9835 60.7628 13.7275 60.7628 13.4075V11.1995H65.6108ZM72.7628 11.1995V13.4075C72.7628 13.7275 72.6828 13.9835 72.5228 14.1755C72.3628 14.3675 72.1228 14.4955 71.8028 14.5595L68.4428 15.2795L67.9148 11.1995H72.7628Z" fill="#F7F7F7"/>
<path d="M93.1355 46.0955C90.5435 46.0955 88.1915 45.6635 86.0795 44.7995C83.9995 43.9035 82.2075 42.6235 80.7035 40.9595C79.2635 39.3275 78.1755 37.4395 77.4395 35.2955C76.7355 33.1515 76.3835 30.9115 76.3835 28.5755C76.3835 25.9195 76.8155 23.5035 77.6795 21.3275C78.5435 19.1515 79.7275 17.2955 81.2315 15.7595C82.7995 14.1915 84.6395 12.9755 86.7515 12.1115C88.8955 11.2475 91.2155 10.8155 93.7115 10.8155C95.0555 10.8155 96.3355 10.9275 97.5515 11.1515C98.7995 11.3755 100.015 11.6955 101.199 12.1115C102.383 12.4955 103.551 12.9275 104.703 13.4075V17.1515L101.343 16.7675C100.383 16.3515 99.2635 15.9995 97.9835 15.7115C96.7355 15.4235 95.4235 15.2795 94.0475 15.2795C91.5515 15.2795 89.3755 15.8395 87.5195 16.9595C85.6635 18.0475 84.2395 19.5835 83.2475 21.5675C82.2555 23.5515 81.7595 25.8715 81.7595 28.5275C81.7595 31.0235 82.2075 33.2635 83.1035 35.2475C83.9995 37.1995 85.3435 38.7515 87.1355 39.9035C88.9595 41.0555 91.1835 41.6315 93.8075 41.6315C95.2795 41.6315 96.6555 41.4075 97.9355 40.9595C99.2155 40.5115 100.463 39.7435 101.679 38.6555C101.839 38.5275 101.983 38.4315 102.111 38.3675C102.271 38.3035 102.431 38.2715 102.591 38.2715C102.879 38.2715 103.119 38.3835 103.311 38.6075L105.375 40.8635C104.095 42.3995 102.431 43.6635 100.383 44.6555C98.3675 45.6155 95.9515 46.0955 93.1355 46.0955ZM100.527 15.9515L104.703 17.1515V21.4715H102.399C102.079 21.4715 101.823 21.3915 101.631 21.2315C101.439 21.0715 101.311 20.8315 101.247 20.5115L100.527 15.9515Z" fill="#F7F7F7"/>
<path d="M115.036 31.4555C115.036 30.4635 115.388 29.6155 116.092 28.9115C116.796 28.2075 117.628 27.8555 118.588 27.8555C119.612 27.8555 120.476 28.2075 121.18 28.9115C121.884 29.6155 122.236 30.4635 122.236 31.4555C122.236 32.4475 121.884 33.2955 121.18 33.9995C120.476 34.6715 119.612 35.0075 118.588 35.0075C117.948 35.0075 117.356 34.8475 116.812 34.5275C116.268 34.2075 115.836 33.7755 115.516 33.2315C115.196 32.6875 115.036 32.0955 115.036 31.4555Z" fill="#F7F7F7"/>
<path d="M143.536 46.0955C141.168 46.0955 139.12 45.5995 137.392 44.6075C135.664 43.6155 134.32 42.2235 133.36 40.4315C132.432 38.6395 131.968 36.5595 131.968 34.1915C131.968 32.6555 132.304 31.0395 132.976 29.3435C133.648 27.6475 134.704 25.8235 136.144 23.8715L144.688 12.3515C144.944 12.0315 145.296 11.7595 145.744 11.5355C146.192 11.3115 146.704 11.1995 147.28 11.1995H151.552L142.096 23.0555C141.744 23.5035 141.36 23.9995 140.944 24.5435C140.528 25.0875 140.128 25.5835 139.744 26.0315C140.512 25.5195 141.36 25.1355 142.288 24.8795C143.216 24.5915 144.208 24.4475 145.264 24.4475C147.184 24.4475 148.912 24.8635 150.448 25.6955C151.984 26.5275 153.2 27.7115 154.096 29.2475C155.024 30.7515 155.488 32.5755 155.488 34.7195C155.488 36.8955 154.976 38.8475 153.952 40.5755C152.928 42.2715 151.52 43.6155 149.728 44.6075C147.936 45.5995 145.872 46.0955 143.536 46.0955ZM143.44 42.1595C144.88 42.1595 146.144 41.8555 147.232 41.2475C148.32 40.6395 149.168 39.8075 149.776 38.7515C150.384 37.6955 150.688 36.4795 150.688 35.1035C150.688 32.9275 150.032 31.2155 148.72 29.9675C147.44 28.7195 145.76 28.0955 143.68 28.0955C142.304 28.0955 141.072 28.3995 139.984 29.0075C138.928 29.6155 138.096 30.4475 137.488 31.5035C136.88 32.5275 136.576 33.6955 136.576 35.0075C136.576 36.4155 136.848 37.6635 137.392 38.7515C137.936 39.8075 138.72 40.6395 139.744 41.2475C140.768 41.8555 142 42.1595 143.44 42.1595Z" fill="#F7F7F7"/>
<path d="M159.204 47.9195L173.508 11.9675C173.732 11.4235 174.052 11.0075 174.468 10.7195C174.916 10.3995 175.428 10.2395 176.004 10.2395H178.02L163.86 46.0955C163.604 46.7035 163.22 47.1515 162.708 47.4395C162.228 47.7595 161.748 47.9195 161.268 47.9195H159.204Z" fill="#F7F7F7"/>
<path d="M213.284 27.7115L182.643 1.99998" stroke="#F7F7F7" stroke-width="4" stroke-linecap="round"/>
<path d="M213.284 28.7115L182.643 54.423" stroke="#F7F7F7" stroke-width="4" stroke-linecap="round"/>
</svg>
