<svg width="52" height="16" viewBox="0 0 52 16" fill="none" xmlns="http://www.w3.org/2000/svg">
<path d="M2.88 15.468C2.456 15.468 2.244 15.256 2.244 14.832V0.636017C2.244 0.212017 2.456 1.71661e-05 2.88 1.71661e-05C3.104 1.71661e-05 3.32 0.124017 3.528 0.372017L13.692 13.428H13.404V0.636017C13.404 0.212017 13.616 1.71661e-05 14.04 1.71661e-05C14.456 1.71661e-05 14.664 0.212017 14.664 0.636017V14.832C14.664 15.256 14.456 15.468 14.04 15.468C13.808 15.468 13.592 15.344 13.392 15.096L3.216 2.04002H3.504V14.832C3.504 15.256 3.296 15.468 2.88 15.468ZM21.4224 15.468C19.6864 15.468 18.4184 15.068 17.6184 14.268C16.8184 13.468 16.4184 12.2 16.4184 10.464V5.00402C16.4184 3.25202 16.8144 1.98002 17.6064 1.18802C18.4064 0.396017 19.6704 1.71661e-05 21.3984 1.71661e-05H24.3024C25.7744 1.71661e-05 26.8704 0.308017 27.5904 0.924017C28.3104 1.53202 28.7064 2.51202 28.7784 3.86402C28.8024 4.08002 28.7584 4.24402 28.6464 4.35602C28.5424 4.46802 28.3864 4.52402 28.1784 4.52402C27.7784 4.52402 27.5584 4.31202 27.5184 3.88802C27.4624 2.89602 27.1904 2.21202 26.7024 1.83602C26.2144 1.45202 25.4144 1.26002 24.3024 1.26002H21.3984C20.4784 1.26002 19.7464 1.38002 19.2024 1.62002C18.6584 1.85202 18.2664 2.24402 18.0264 2.79602C17.7944 3.34002 17.6784 4.07602 17.6784 5.00402V10.464C17.6784 11.392 17.7984 12.128 18.0384 12.672C18.2784 13.216 18.6704 13.608 19.2144 13.848C19.7584 14.088 20.4944 14.208 21.4224 14.208H24.3024C25.4144 14.208 26.2144 14.02 26.7024 13.644C27.1904 13.26 27.4624 12.572 27.5184 11.58C27.5584 11.156 27.7784 10.944 28.1784 10.944C28.3864 10.944 28.5424 11.004 28.6464 11.124C28.7584 11.236 28.8024 11.396 28.7784 11.604C28.7064 12.956 28.3104 13.94 27.5904 14.556C26.8704 15.164 25.7744 15.468 24.3024 15.468H21.4224Z" fill="white"/>
<path d="M33.46 9.46802C32.996 9.46802 32.764 9.23202 32.764 8.76002V8.30402C32.764 7.84802 32.996 7.62002 33.46 7.62002H33.904C34.36 7.62002 34.588 7.84802 34.588 8.30402V8.76002C34.588 9.23202 34.36 9.46802 33.904 9.46802H33.46Z" fill="white"/>
<path d="M42.916 15.444C41.428 15.444 40.336 15.1 39.64 14.412C38.952 13.724 38.608 12.644 38.608 11.172V4.06802C38.608 2.66802 38.936 1.64002 39.592 0.984017C40.248 0.328017 41.276 1.71661e-05 42.676 1.71661e-05H45.652C46.932 1.71661e-05 47.9 0.276017 48.556 0.828017C49.212 1.37202 49.584 2.22402 49.672 3.38402C49.696 3.59202 49.652 3.75602 49.54 3.87602C49.436 3.98802 49.28 4.04402 49.072 4.04402C48.672 4.04402 48.452 3.83602 48.412 3.42002C48.348 2.62002 48.104 2.06002 47.68 1.74002C47.264 1.42002 46.588 1.26002 45.652 1.26002H42.676C41.628 1.26002 40.896 1.46802 40.48 1.88402C40.072 2.29202 39.868 3.02002 39.868 4.06802V6.74402C40.412 5.73602 41.428 5.23202 42.916 5.23202H45.412C46.9 5.23202 47.988 5.58002 48.676 6.27602C49.364 6.96402 49.708 8.05202 49.708 9.54002V11.148C49.708 12.628 49.364 13.716 48.676 14.412C47.988 15.1 46.9 15.444 45.412 15.444H42.916ZM42.916 14.184H45.412C46.54 14.184 47.328 13.96 47.776 13.512C48.224 13.056 48.448 12.268 48.448 11.148V9.54002C48.448 8.40402 48.224 7.61202 47.776 7.16402C47.328 6.71602 46.54 6.49202 45.412 6.49202H42.916C41.772 6.49202 40.976 6.71602 40.528 7.16402C40.088 7.60402 39.868 8.38802 39.868 9.51602V11.172C39.868 12.292 40.088 13.076 40.528 13.524C40.976 13.964 41.772 14.184 42.916 14.184Z" fill="white"/>
</svg>
