<svg xmlns="http://www.w3.org/2000/svg" version="1.1" xmlns:xlink="http://www.w3.org/1999/xlink" xmlns:svgjs="http://svgjs.dev/svgjs" width="2000" height="1500" preserveAspectRatio="none" viewBox="0 0 2000 1500"><g mask="url(&quot;#SvgjsMask1305&quot;)" fill="none"><rect width="2000" height="1500" x="0" y="0" fill="rgba(17, 17, 17, 1)"></rect><g mask="url(&quot;#SvgjsMask1306&quot;)"><path d="M990 486L954 522L954 558L954 594L954 630L954 666M990 270L1026 306L1026 342L1026 378L1026 414M990 450L1026 486L1026 522L1026 558L1026 594L1026 630M990 -18L990 18L990 54L990 90L990 126L990 162L990 198L990 234L990 270L990 306L990 342L990 378L990 414L990 450L990 486L990 522L990 558L990 594" stroke="rgba(181, 192, 208, 0.5)" stroke-width="6"></path><path d="M981 594 a9 9 0 1 0 18 0 a9 9 0 1 0 -18 0zM945 666 a9 9 0 1 0 18 0 a9 9 0 1 0 -18 0zM1017 414 a9 9 0 1 0 18 0 a9 9 0 1 0 -18 0zM1017 630 a9 9 0 1 0 18 0 a9 9 0 1 0 -18 0z" fill="rgba(181, 192, 208, 0.5)"></path><path d="M1026 -18L1026 18L1026 54L1026 90L1026 126L1026 162L1026 198L1026 234L1062 270" stroke="rgba(255, 203, 116, 0.5)" stroke-width="6"></path><path d="M1053 270 a9 9 0 1 0 18 0 a9 9 0 1 0 -18 0z" fill="rgba(255, 203, 116, 0.5)"></path><path d="M954 -18L954 18L954 54" stroke="rgba(86, 92, 119, 0.4)" stroke-width="6"></path><path d="M945 54 a9 9 0 1 0 18 0 a9 9 0 1 0 -18 0z" fill="rgba(86, 92, 119, 0.4)"></path><path d="M1098 306L1062 342M1062 -18L1062 18L1062 54L1062 90L1062 126L1062 162L1062 198L1062 234L1098 270L1098 306L1098 342L1098 378L1134 414" stroke="rgba(181, 192, 208, 0.5)" stroke-width="6"></path><path d="M1125 414 a9 9 0 1 0 18 0 a9 9 0 1 0 -18 0zM1053 342 a9 9 0 1 0 18 0 a9 9 0 1 0 -18 0z" fill="rgba(181, 192, 208, 0.5)"></path><path d="M954 378L918 414L918 450L918 486M954 162L918 198L918 234M954 270L918 306L918 342L918 378M918 -18L918 18L918 54L918 90L954 126L954 162L954 198L954 234L954 270L954 306L954 342L954 378L954 414L954 450" stroke="rgba(255, 203, 116, 0.5)" stroke-width="6"></path><path d="M945 450 a9 9 0 1 0 18 0 a9 9 0 1 0 -18 0zM909 486 a9 9 0 1 0 18 0 a9 9 0 1 0 -18 0zM909 234 a9 9 0 1 0 18 0 a9 9 0 1 0 -18 0zM909 378 a9 9 0 1 0 18 0 a9 9 0 1 0 -18 0z" fill="rgba(255, 203, 116, 0.5)"></path><path d="M1170 450L1134 486L1134 522L1134 558L1134 594M1206 594L1242 630L1242 666M1134 306L1170 342M1206 522L1170 558L1170 594L1170 630L1170 666M1098 -18L1098 18L1098 54L1098 90L1098 126L1098 162L1098 198L1098 234L1134 270L1134 306L1134 342L1134 378L1170 414L1170 450L1170 486L1206 522L1206 558L1206 594L1206 630" stroke="rgba(255, 203, 116, 0.5)" stroke-width="6"></path><path d="M1197 630 a9 9 0 1 0 18 0 a9 9 0 1 0 -18 0zM1125 594 a9 9 0 1 0 18 0 a9 9 0 1 0 -18 0zM1233 666 a9 9 0 1 0 18 0 a9 9 0 1 0 -18 0zM1161 342 a9 9 0 1 0 18 0 a9 9 0 1 0 -18 0zM1161 666 a9 9 0 1 0 18 0 a9 9 0 1 0 -18 0z" fill="rgba(255, 203, 116, 0.5)"></path><path d="M882 126L918 162M882 90L846 126L846 162M882 -18L882 18L882 54L882 90L882 126L882 162" stroke="rgba(255, 203, 116, 0.5)" stroke-width="6"></path><path d="M873 162 a9 9 0 1 0 18 0 a9 9 0 1 0 -18 0zM909 162 a9 9 0 1 0 18 0 a9 9 0 1 0 -18 0zM837 162 a9 9 0 1 0 18 0 a9 9 0 1 0 -18 0z" fill="rgba(255, 203, 116, 0.5)"></path><path d="M1134 198L1170 234L1206 270L1206 306L1206 342M1134 -18L1134 18L1134 54L1134 90L1134 126L1134 162L1134 198L1134 234L1170 270" stroke="rgba(51, 46, 165, 0.5)" stroke-width="6"></path><path d="M1161 270 a9 9 0 1 0 18 0 a9 9 0 1 0 -18 0zM1197 342 a9 9 0 1 0 18 0 a9 9 0 1 0 -18 0z" fill="rgba(51, 46, 165, 0.5)"></path><path d="M810 234L810 270L810 306L810 342L810 378M810 198L846 234L882 270L882 306L882 342M846 -18L846 18L810 54L810 90L810 126L810 162L810 198L810 234L846 270L846 306L846 342L846 378" stroke="rgba(83, 91, 242, 0.6)" stroke-width="6"></path><path d="M837 378 a9 9 0 1 0 18 0 a9 9 0 1 0 -18 0zM801 378 a9 9 0 1 0 18 0 a9 9 0 1 0 -18 0zM873 342 a9 9 0 1 0 18 0 a9 9 0 1 0 -18 0z" fill="rgba(83, 91, 242, 0.6)"></path><path d="M1170 126L1206 162L1206 198M1170 -18L1170 18L1170 54L1170 90L1170 126L1170 162" stroke="rgba(86, 92, 119, 0.4)" stroke-width="6"></path><path d="M1161 162 a9 9 0 1 0 18 0 a9 9 0 1 0 -18 0zM1197 198 a9 9 0 1 0 18 0 a9 9 0 1 0 -18 0z" fill="rgba(86, 92, 119, 0.4)"></path><path d="M774 306L738 342M774 270L738 306M810 -18L810 18L774 54L774 90L774 126L774 162L774 198L774 234L774 270L774 306L774 342L774 378" stroke="rgba(83, 91, 242, 0.6)" stroke-width="6"></path><path d="M765 378 a9 9 0 1 0 18 0 a9 9 0 1 0 -18 0zM729 342 a9 9 0 1 0 18 0 a9 9 0 1 0 -18 0zM729 306 a9 9 0 1 0 18 0 a9 9 0 1 0 -18 0z" fill="rgba(83, 91, 242, 0.6)"></path><path d="M1242 126L1278 162M1206 54L1242 90L1278 126M1206 90L1206 126M1206 -18L1206 18L1206 54L1206 90L1242 126L1242 162" stroke="rgba(83, 91, 242, 0.6)" stroke-width="6"></path><path d="M1233 162 a9 9 0 1 0 18 0 a9 9 0 1 0 -18 0zM1269 162 a9 9 0 1 0 18 0 a9 9 0 1 0 -18 0zM1269 126 a9 9 0 1 0 18 0 a9 9 0 1 0 -18 0zM1197 126 a9 9 0 1 0 18 0 a9 9 0 1 0 -18 0z" fill="rgba(83, 91, 242, 0.6)"></path><path d="M738 198L702 234L666 270M702 378L666 414L666 450L666 486M702 306L666 342L666 378M774 -18L738 18L738 54L738 90L738 126L738 162L738 198L738 234L702 270L702 306L702 342L702 378L702 414" stroke="rgba(51, 46, 165, 0.5)" stroke-width="6"></path><path d="M693 414 a9 9 0 1 0 18 0 a9 9 0 1 0 -18 0zM657 270 a9 9 0 1 0 18 0 a9 9 0 1 0 -18 0zM657 486 a9 9 0 1 0 18 0 a9 9 0 1 0 -18 0zM657 378 a9 9 0 1 0 18 0 a9 9 0 1 0 -18 0z" fill="rgba(51, 46, 165, 0.5)"></path><path d="M1242 -18L1242 18" stroke="rgba(83, 91, 242, 0.6)" stroke-width="6"></path><path d="M1233 18 a9 9 0 1 0 18 0 a9 9 0 1 0 -18 0z" fill="rgba(83, 91, 242, 0.6)"></path><path d="M738 -18L702 18L702 54L702 90L702 126L702 162" stroke="rgba(181, 192, 208, 0.5)" stroke-width="6"></path><path d="M693 162 a9 9 0 1 0 18 0 a9 9 0 1 0 -18 0z" fill="rgba(181, 192, 208, 0.5)"></path><path d="M1314 54L1278 90M1278 -18L1314 18L1314 54L1314 90" stroke="rgba(83, 91, 242, 0.6)" stroke-width="6"></path><path d="M1305 90 a9 9 0 1 0 18 0 a9 9 0 1 0 -18 0zM1269 90 a9 9 0 1 0 18 0 a9 9 0 1 0 -18 0z" fill="rgba(83, 91, 242, 0.6)"></path><path d="M702 -18L666 18L666 54L666 90L666 126L666 162" stroke="rgba(86, 92, 119, 0.4)" stroke-width="6"></path><path d="M657 162 a9 9 0 1 0 18 0 a9 9 0 1 0 -18 0z" fill="rgba(86, 92, 119, 0.4)"></path><path d="M1314 -18L1350 18L1350 54L1350 90" stroke="rgba(51, 46, 165, 0.5)" stroke-width="6"></path><path d="M1341 90 a9 9 0 1 0 18 0 a9 9 0 1 0 -18 0z" fill="rgba(51, 46, 165, 0.5)"></path><path d="M630 378L594 414M630 270L594 306L594 342M630 198L594 234L594 270L558 306L558 342M666 -18L630 18L630 54L630 90L630 126L630 162L630 198L630 234L630 270L630 306L630 342L630 378L630 414L630 450" stroke="rgba(86, 92, 119, 0.4)" stroke-width="6"></path><path d="M621 450 a9 9 0 1 0 18 0 a9 9 0 1 0 -18 0zM585 414 a9 9 0 1 0 18 0 a9 9 0 1 0 -18 0zM585 342 a9 9 0 1 0 18 0 a9 9 0 1 0 -18 0zM549 342 a9 9 0 1 0 18 0 a9 9 0 1 0 -18 0z" fill="rgba(86, 92, 119, 0.4)"></path><path d="M630 -18L594 18L594 54L594 90L594 126" stroke="rgba(86, 92, 119, 0.4)" stroke-width="6"></path><path d="M585 126 a9 9 0 1 0 18 0 a9 9 0 1 0 -18 0z" fill="rgba(86, 92, 119, 0.4)"></path><path d="M1494 378L1458 414L1458 450M1494 234L1458 270L1458 306L1458 342M1422 126L1422 162L1422 198M1386 -18L1386 18L1386 54L1386 90L1422 126L1458 162L1494 198L1494 234L1494 270L1494 306L1494 342L1494 378L1494 414" stroke="rgba(51, 46, 165, 0.5)" stroke-width="6"></path><path d="M1485 414 a9 9 0 1 0 18 0 a9 9 0 1 0 -18 0zM1449 450 a9 9 0 1 0 18 0 a9 9 0 1 0 -18 0zM1449 342 a9 9 0 1 0 18 0 a9 9 0 1 0 -18 0zM1413 198 a9 9 0 1 0 18 0 a9 9 0 1 0 -18 0z" fill="rgba(51, 46, 165, 0.5)"></path><path d="M594 -18L558 18L558 54L558 90L558 126" stroke="rgba(51, 46, 165, 0.5)" stroke-width="6"></path><path d="M549 126 a9 9 0 1 0 18 0 a9 9 0 1 0 -18 0z" fill="rgba(51, 46, 165, 0.5)"></path><path d="M1422 -18L1422 18" stroke="rgba(51, 46, 165, 0.5)" stroke-width="6"></path><path d="M1413 18 a9 9 0 1 0 18 0 a9 9 0 1 0 -18 0z" fill="rgba(51, 46, 165, 0.5)"></path><path d="M522 162L522 198L522 234M522 342L486 378L486 414M486 270L522 306M558 -18L522 18L522 54L522 90L522 126L522 162L486 198L486 234L486 270L486 306L522 342L522 378" stroke="rgba(51, 46, 165, 0.5)" stroke-width="6"></path><path d="M513 378 a9 9 0 1 0 18 0 a9 9 0 1 0 -18 0zM513 234 a9 9 0 1 0 18 0 a9 9 0 1 0 -18 0zM477 414 a9 9 0 1 0 18 0 a9 9 0 1 0 -18 0zM513 306 a9 9 0 1 0 18 0 a9 9 0 1 0 -18 0z" fill="rgba(51, 46, 165, 0.5)"></path><path d="M1530 450L1494 486L1494 522L1494 558M1530 414L1566 450L1566 486L1566 522L1566 558M1530 198L1566 234M1458 18L1494 54L1494 90L1494 126M1458 -18L1458 18L1458 54L1458 90L1458 126L1494 162L1530 198L1530 234L1530 270L1530 306L1530 342L1530 378L1530 414L1530 450L1530 486L1530 522L1530 558L1530 594" stroke="rgba(255, 203, 116, 0.5)" stroke-width="6"></path><path d="M1521 594 a9 9 0 1 0 18 0 a9 9 0 1 0 -18 0zM1485 558 a9 9 0 1 0 18 0 a9 9 0 1 0 -18 0zM1557 558 a9 9 0 1 0 18 0 a9 9 0 1 0 -18 0zM1557 234 a9 9 0 1 0 18 0 a9 9 0 1 0 -18 0zM1485 126 a9 9 0 1 0 18 0 a9 9 0 1 0 -18 0z" fill="rgba(255, 203, 116, 0.5)"></path><path d="M486 90L450 126M450 234L414 270L414 306L414 342M450 198L414 234L378 270M522 -18L486 18L486 54L486 90L486 126L486 162L450 198L450 234L450 270L450 306" stroke="rgba(83, 91, 242, 0.6)" stroke-width="6"></path><path d="M441 306 a9 9 0 1 0 18 0 a9 9 0 1 0 -18 0zM441 126 a9 9 0 1 0 18 0 a9 9 0 1 0 -18 0zM405 342 a9 9 0 1 0 18 0 a9 9 0 1 0 -18 0zM369 270 a9 9 0 1 0 18 0 a9 9 0 1 0 -18 0z" fill="rgba(83, 91, 242, 0.6)"></path></g></g><defs><mask id="SvgjsMask1305"><rect width="2000" height="1500" fill="#ffffff"></rect></mask><mask id="SvgjsMask1306"><rect width="2000" height="1500" fill="white"></rect><path d="M985.5 594 a4.5 4.5 0 1 0 9 0 a4.5 4.5 0 1 0 -9 0zM949.5 666 a4.5 4.5 0 1 0 9 0 a4.5 4.5 0 1 0 -9 0zM1021.5 414 a4.5 4.5 0 1 0 9 0 a4.5 4.5 0 1 0 -9 0zM1021.5 630 a4.5 4.5 0 1 0 9 0 a4.5 4.5 0 1 0 -9 0z" fill="black"></path><path d="M1057.5 270 a4.5 4.5 0 1 0 9 0 a4.5 4.5 0 1 0 -9 0z" fill="black"></path><path d="M949.5 54 a4.5 4.5 0 1 0 9 0 a4.5 4.5 0 1 0 -9 0z" fill="black"></path><path d="M1129.5 414 a4.5 4.5 0 1 0 9 0 a4.5 4.5 0 1 0 -9 0zM1057.5 342 a4.5 4.5 0 1 0 9 0 a4.5 4.5 0 1 0 -9 0z" fill="black"></path><path d="M949.5 450 a4.5 4.5 0 1 0 9 0 a4.5 4.5 0 1 0 -9 0zM913.5 486 a4.5 4.5 0 1 0 9 0 a4.5 4.5 0 1 0 -9 0zM913.5 234 a4.5 4.5 0 1 0 9 0 a4.5 4.5 0 1 0 -9 0zM913.5 378 a4.5 4.5 0 1 0 9 0 a4.5 4.5 0 1 0 -9 0z" fill="black"></path><path d="M1201.5 630 a4.5 4.5 0 1 0 9 0 a4.5 4.5 0 1 0 -9 0zM1129.5 594 a4.5 4.5 0 1 0 9 0 a4.5 4.5 0 1 0 -9 0zM1237.5 666 a4.5 4.5 0 1 0 9 0 a4.5 4.5 0 1 0 -9 0zM1165.5 342 a4.5 4.5 0 1 0 9 0 a4.5 4.5 0 1 0 -9 0zM1165.5 666 a4.5 4.5 0 1 0 9 0 a4.5 4.5 0 1 0 -9 0z" fill="black"></path><path d="M877.5 162 a4.5 4.5 0 1 0 9 0 a4.5 4.5 0 1 0 -9 0zM913.5 162 a4.5 4.5 0 1 0 9 0 a4.5 4.5 0 1 0 -9 0zM841.5 162 a4.5 4.5 0 1 0 9 0 a4.5 4.5 0 1 0 -9 0z" fill="black"></path><path d="M1165.5 270 a4.5 4.5 0 1 0 9 0 a4.5 4.5 0 1 0 -9 0zM1201.5 342 a4.5 4.5 0 1 0 9 0 a4.5 4.5 0 1 0 -9 0z" fill="black"></path><path d="M841.5 378 a4.5 4.5 0 1 0 9 0 a4.5 4.5 0 1 0 -9 0zM805.5 378 a4.5 4.5 0 1 0 9 0 a4.5 4.5 0 1 0 -9 0zM877.5 342 a4.5 4.5 0 1 0 9 0 a4.5 4.5 0 1 0 -9 0z" fill="black"></path><path d="M1165.5 162 a4.5 4.5 0 1 0 9 0 a4.5 4.5 0 1 0 -9 0zM1201.5 198 a4.5 4.5 0 1 0 9 0 a4.5 4.5 0 1 0 -9 0z" fill="black"></path><path d="M769.5 378 a4.5 4.5 0 1 0 9 0 a4.5 4.5 0 1 0 -9 0zM733.5 342 a4.5 4.5 0 1 0 9 0 a4.5 4.5 0 1 0 -9 0zM733.5 306 a4.5 4.5 0 1 0 9 0 a4.5 4.5 0 1 0 -9 0z" fill="black"></path><path d="M1237.5 162 a4.5 4.5 0 1 0 9 0 a4.5 4.5 0 1 0 -9 0zM1273.5 162 a4.5 4.5 0 1 0 9 0 a4.5 4.5 0 1 0 -9 0zM1273.5 126 a4.5 4.5 0 1 0 9 0 a4.5 4.5 0 1 0 -9 0zM1201.5 126 a4.5 4.5 0 1 0 9 0 a4.5 4.5 0 1 0 -9 0z" fill="black"></path><path d="M697.5 414 a4.5 4.5 0 1 0 9 0 a4.5 4.5 0 1 0 -9 0zM661.5 270 a4.5 4.5 0 1 0 9 0 a4.5 4.5 0 1 0 -9 0zM661.5 486 a4.5 4.5 0 1 0 9 0 a4.5 4.5 0 1 0 -9 0zM661.5 378 a4.5 4.5 0 1 0 9 0 a4.5 4.5 0 1 0 -9 0z" fill="black"></path><path d="M1237.5 18 a4.5 4.5 0 1 0 9 0 a4.5 4.5 0 1 0 -9 0z" fill="black"></path><path d="M697.5 162 a4.5 4.5 0 1 0 9 0 a4.5 4.5 0 1 0 -9 0z" fill="black"></path><path d="M1309.5 90 a4.5 4.5 0 1 0 9 0 a4.5 4.5 0 1 0 -9 0zM1273.5 90 a4.5 4.5 0 1 0 9 0 a4.5 4.5 0 1 0 -9 0z" fill="black"></path><path d="M661.5 162 a4.5 4.5 0 1 0 9 0 a4.5 4.5 0 1 0 -9 0z" fill="black"></path><path d="M1345.5 90 a4.5 4.5 0 1 0 9 0 a4.5 4.5 0 1 0 -9 0z" fill="black"></path><path d="M625.5 450 a4.5 4.5 0 1 0 9 0 a4.5 4.5 0 1 0 -9 0zM589.5 414 a4.5 4.5 0 1 0 9 0 a4.5 4.5 0 1 0 -9 0zM589.5 342 a4.5 4.5 0 1 0 9 0 a4.5 4.5 0 1 0 -9 0zM553.5 342 a4.5 4.5 0 1 0 9 0 a4.5 4.5 0 1 0 -9 0z" fill="black"></path><path d="M589.5 126 a4.5 4.5 0 1 0 9 0 a4.5 4.5 0 1 0 -9 0z" fill="black"></path><path d="M1489.5 414 a4.5 4.5 0 1 0 9 0 a4.5 4.5 0 1 0 -9 0zM1453.5 450 a4.5 4.5 0 1 0 9 0 a4.5 4.5 0 1 0 -9 0zM1453.5 342 a4.5 4.5 0 1 0 9 0 a4.5 4.5 0 1 0 -9 0zM1417.5 198 a4.5 4.5 0 1 0 9 0 a4.5 4.5 0 1 0 -9 0z" fill="black"></path><path d="M553.5 126 a4.5 4.5 0 1 0 9 0 a4.5 4.5 0 1 0 -9 0z" fill="black"></path><path d="M1417.5 18 a4.5 4.5 0 1 0 9 0 a4.5 4.5 0 1 0 -9 0z" fill="black"></path><path d="M517.5 378 a4.5 4.5 0 1 0 9 0 a4.5 4.5 0 1 0 -9 0zM517.5 234 a4.5 4.5 0 1 0 9 0 a4.5 4.5 0 1 0 -9 0zM481.5 414 a4.5 4.5 0 1 0 9 0 a4.5 4.5 0 1 0 -9 0zM517.5 306 a4.5 4.5 0 1 0 9 0 a4.5 4.5 0 1 0 -9 0z" fill="black"></path><path d="M1525.5 594 a4.5 4.5 0 1 0 9 0 a4.5 4.5 0 1 0 -9 0zM1489.5 558 a4.5 4.5 0 1 0 9 0 a4.5 4.5 0 1 0 -9 0zM1561.5 558 a4.5 4.5 0 1 0 9 0 a4.5 4.5 0 1 0 -9 0zM1561.5 234 a4.5 4.5 0 1 0 9 0 a4.5 4.5 0 1 0 -9 0zM1489.5 126 a4.5 4.5 0 1 0 9 0 a4.5 4.5 0 1 0 -9 0z" fill="black"></path><path d="M445.5 306 a4.5 4.5 0 1 0 9 0 a4.5 4.5 0 1 0 -9 0zM445.5 126 a4.5 4.5 0 1 0 9 0 a4.5 4.5 0 1 0 -9 0zM409.5 342 a4.5 4.5 0 1 0 9 0 a4.5 4.5 0 1 0 -9 0zM373.5 270 a4.5 4.5 0 1 0 9 0 a4.5 4.5 0 1 0 -9 0z" fill="black"></path></mask></defs></svg>