<svg xmlns="http://www.w3.org/2000/svg" version="1.1" xmlns:xlink="http://www.w3.org/1999/xlink" xmlns:svgjs="http://svgjs.dev/svgjs" width="2840" height="2160" preserveAspectRatio="none" viewBox="0 0 2840 2160"><g mask="url(&quot;#SvgjsMask1235&quot;)" fill="none"><rect width="2840" height="2160" x="0" y="0" fill="rgba(6, 44, 45, 1)"></rect><path d="M292.52 788.68L451 880.18L451 1063.18L292.52 1154.68L134.03 1063.18L134.03 880.18zM292.52 1337.68L451 1429.18L451 1612.18L292.52 1703.68L134.03 1612.18L134.03 1429.18zM134.03 1612.18L292.52 1703.68L292.52 1886.68L134.03 1978.18L-24.46 1886.68L-24.46 1703.68zM134.03 2161.18L292.52 2252.68L292.52 2435.68L134.03 2527.18L-24.46 2435.68L-24.46 2252.68zM451 514.18L609.49 605.68L609.49 788.68L451 880.18L292.52 788.68L292.52 605.68zM451 1063.18L609.49 1154.68L609.49 1337.68L451 1429.18L292.52 1337.68L292.52 1154.68zM451 1612.18L609.49 1703.68L609.49 1886.68L451 1978.18L292.52 1886.68L292.52 1703.68zM609.49 1886.68L767.98 1978.18L767.98 2161.18L609.49 2252.68L451 2161.18L451 1978.18zM767.98 -34.82L926.47 56.68L926.47 239.68L767.98 331.18L609.49 239.68L609.49 56.68zM926.47 239.68L1084.95 331.18L1084.95 514.18L926.47 605.68L767.98 514.18L767.98 331.18zM767.98 514.18L926.47 605.68L926.47 788.68L767.98 880.18L609.49 788.68L609.49 605.68zM767.98 1063.18L926.47 1154.68L926.47 1337.68L767.98 1429.18L609.49 1337.68L609.49 1154.68zM926.47 1337.68L1084.95 1429.18L1084.95 1612.18L926.47 1703.68L767.98 1612.18L767.98 1429.18zM926.47 1886.68L1084.95 1978.18L1084.95 2161.18L926.47 2252.68L767.98 2161.18L767.98 1978.18zM767.98 2161.18L926.47 2252.68L926.47 2435.68L767.98 2527.18L609.49 2435.68L609.49 2252.68zM1243.44 239.68L1401.93 331.18L1401.93 514.18L1243.44 605.68L1084.95 514.18L1084.95 331.18zM1084.95 2161.18L1243.44 2252.68L1243.44 2435.68L1084.95 2527.18L926.47 2435.68L926.47 2252.68zM1560.41 239.68L1718.9 331.18L1718.9 514.18L1560.41 605.68L1401.93 514.18L1401.93 331.18zM1401.93 1063.18L1560.41 1154.68L1560.41 1337.68L1401.93 1429.18L1243.44 1337.68L1243.44 1154.68zM1401.93 1612.18L1560.41 1703.68L1560.41 1886.68L1401.93 1978.18L1243.44 1886.68L1243.44 1703.68zM1401.93 2161.18L1560.41 2252.68L1560.41 2435.68L1401.93 2527.18L1243.44 2435.68L1243.44 2252.68zM1718.9 -34.82L1877.39 56.68L1877.39 239.68L1718.9 331.18L1560.41 239.68L1560.41 56.68zM1718.9 514.18L1877.39 605.68L1877.39 788.68L1718.9 880.18L1560.41 788.68L1560.41 605.68zM1877.39 788.68L2035.88 880.18L2035.88 1063.18L1877.39 1154.68L1718.9 1063.18L1718.9 880.18zM1877.39 1886.68L2035.88 1978.18L2035.88 2161.18L1877.39 2252.68L1718.9 2161.18L1718.9 1978.18zM1718.9 2161.18L1877.39 2252.68L1877.39 2435.68L1718.9 2527.18L1560.41 2435.68L1560.41 2252.68zM2035.88 514.18L2194.36 605.68L2194.36 788.68L2035.88 880.18L1877.39 788.68L1877.39 605.68zM2035.88 1612.18L2194.36 1703.68L2194.36 1886.68L2035.88 1978.18L1877.39 1886.68L1877.39 1703.68zM2035.88 2161.18L2194.36 2252.68L2194.36 2435.68L2035.88 2527.18L1877.39 2435.68L1877.39 2252.68zM2352.85 -34.82L2511.34 56.68L2511.34 239.68L2352.85 331.18L2194.36 239.68L2194.36 56.68zM2511.34 239.68L2669.82 331.18L2669.82 514.18L2511.34 605.68L2352.85 514.18L2352.85 331.18zM2352.85 1063.18L2511.34 1154.68L2511.34 1337.68L2352.85 1429.18L2194.36 1337.68L2194.36 1154.68zM2669.82 -34.82L2828.31 56.68L2828.31 239.68L2669.82 331.18L2511.34 239.68L2511.34 56.68zM2669.82 514.18L2828.31 605.68L2828.31 788.68L2669.82 880.18L2511.34 788.68L2511.34 605.68zM2669.82 1063.18L2828.31 1154.68L2828.31 1337.68L2669.82 1429.18L2511.34 1337.68L2511.34 1154.68zM2828.31 1886.68L2986.8 1978.18L2986.8 2161.18L2828.31 2252.68L2669.82 2161.18L2669.82 1978.18zM2669.82 2161.18L2828.31 2252.68L2828.31 2435.68L2669.82 2527.18L2511.34 2435.68L2511.34 2252.68z" stroke="rgba(35, 77, 86, 1)" stroke-width="2"></path><path d="M274.22 788.68 a18.3 18.3 0 1 0 36.6 0 a18.3 18.3 0 1 0 -36.6 0zM432.7 880.18 a18.3 18.3 0 1 0 36.6 0 a18.3 18.3 0 1 0 -36.6 0zM432.7 1063.18 a18.3 18.3 0 1 0 36.6 0 a18.3 18.3 0 1 0 -36.6 0zM274.22 1154.68 a18.3 18.3 0 1 0 36.6 0 a18.3 18.3 0 1 0 -36.6 0zM115.73 1063.18 a18.3 18.3 0 1 0 36.6 0 a18.3 18.3 0 1 0 -36.6 0zM115.73 880.18 a18.3 18.3 0 1 0 36.6 0 a18.3 18.3 0 1 0 -36.6 0zM274.22 1337.68 a18.3 18.3 0 1 0 36.6 0 a18.3 18.3 0 1 0 -36.6 0zM432.7 1429.18 a18.3 18.3 0 1 0 36.6 0 a18.3 18.3 0 1 0 -36.6 0zM432.7 1612.18 a18.3 18.3 0 1 0 36.6 0 a18.3 18.3 0 1 0 -36.6 0zM274.22 1703.68 a18.3 18.3 0 1 0 36.6 0 a18.3 18.3 0 1 0 -36.6 0zM115.73 1612.18 a18.3 18.3 0 1 0 36.6 0 a18.3 18.3 0 1 0 -36.6 0zM115.73 1429.18 a18.3 18.3 0 1 0 36.6 0 a18.3 18.3 0 1 0 -36.6 0zM274.22 1886.68 a18.3 18.3 0 1 0 36.6 0 a18.3 18.3 0 1 0 -36.6 0zM115.73 1978.18 a18.3 18.3 0 1 0 36.6 0 a18.3 18.3 0 1 0 -36.6 0zM-42.76 1886.68 a18.3 18.3 0 1 0 36.6 0 a18.3 18.3 0 1 0 -36.6 0zM-42.76 1703.68 a18.3 18.3 0 1 0 36.6 0 a18.3 18.3 0 1 0 -36.6 0zM115.73 2161.18 a18.3 18.3 0 1 0 36.6 0 a18.3 18.3 0 1 0 -36.6 0zM274.22 2252.68 a18.3 18.3 0 1 0 36.6 0 a18.3 18.3 0 1 0 -36.6 0zM274.22 2435.68 a18.3 18.3 0 1 0 36.6 0 a18.3 18.3 0 1 0 -36.6 0zM115.73 2527.18 a18.3 18.3 0 1 0 36.6 0 a18.3 18.3 0 1 0 -36.6 0zM-42.76 2435.68 a18.3 18.3 0 1 0 36.6 0 a18.3 18.3 0 1 0 -36.6 0zM-42.76 2252.68 a18.3 18.3 0 1 0 36.6 0 a18.3 18.3 0 1 0 -36.6 0zM432.7 514.18 a18.3 18.3 0 1 0 36.6 0 a18.3 18.3 0 1 0 -36.6 0zM591.19 605.68 a18.3 18.3 0 1 0 36.6 0 a18.3 18.3 0 1 0 -36.6 0zM591.19 788.68 a18.3 18.3 0 1 0 36.6 0 a18.3 18.3 0 1 0 -36.6 0zM274.22 605.68 a18.3 18.3 0 1 0 36.6 0 a18.3 18.3 0 1 0 -36.6 0zM591.19 1154.68 a18.3 18.3 0 1 0 36.6 0 a18.3 18.3 0 1 0 -36.6 0zM591.19 1337.68 a18.3 18.3 0 1 0 36.6 0 a18.3 18.3 0 1 0 -36.6 0zM591.19 1703.68 a18.3 18.3 0 1 0 36.6 0 a18.3 18.3 0 1 0 -36.6 0zM591.19 1886.68 a18.3 18.3 0 1 0 36.6 0 a18.3 18.3 0 1 0 -36.6 0zM432.7 1978.18 a18.3 18.3 0 1 0 36.6 0 a18.3 18.3 0 1 0 -36.6 0zM749.68 1978.18 a18.3 18.3 0 1 0 36.6 0 a18.3 18.3 0 1 0 -36.6 0zM749.68 2161.18 a18.3 18.3 0 1 0 36.6 0 a18.3 18.3 0 1 0 -36.6 0zM591.19 2252.68 a18.3 18.3 0 1 0 36.6 0 a18.3 18.3 0 1 0 -36.6 0zM432.7 2161.18 a18.3 18.3 0 1 0 36.6 0 a18.3 18.3 0 1 0 -36.6 0zM749.68 -34.82 a18.3 18.3 0 1 0 36.6 0 a18.3 18.3 0 1 0 -36.6 0zM908.17 56.68 a18.3 18.3 0 1 0 36.6 0 a18.3 18.3 0 1 0 -36.6 0zM908.17 239.68 a18.3 18.3 0 1 0 36.6 0 a18.3 18.3 0 1 0 -36.6 0zM749.68 331.18 a18.3 18.3 0 1 0 36.6 0 a18.3 18.3 0 1 0 -36.6 0zM591.19 239.68 a18.3 18.3 0 1 0 36.6 0 a18.3 18.3 0 1 0 -36.6 0zM591.19 56.68 a18.3 18.3 0 1 0 36.6 0 a18.3 18.3 0 1 0 -36.6 0zM1066.65 331.18 a18.3 18.3 0 1 0 36.6 0 a18.3 18.3 0 1 0 -36.6 0zM1066.65 514.18 a18.3 18.3 0 1 0 36.6 0 a18.3 18.3 0 1 0 -36.6 0zM908.17 605.68 a18.3 18.3 0 1 0 36.6 0 a18.3 18.3 0 1 0 -36.6 0zM749.68 514.18 a18.3 18.3 0 1 0 36.6 0 a18.3 18.3 0 1 0 -36.6 0zM908.17 788.68 a18.3 18.3 0 1 0 36.6 0 a18.3 18.3 0 1 0 -36.6 0zM749.68 880.18 a18.3 18.3 0 1 0 36.6 0 a18.3 18.3 0 1 0 -36.6 0zM749.68 1063.18 a18.3 18.3 0 1 0 36.6 0 a18.3 18.3 0 1 0 -36.6 0zM908.17 1154.68 a18.3 18.3 0 1 0 36.6 0 a18.3 18.3 0 1 0 -36.6 0zM908.17 1337.68 a18.3 18.3 0 1 0 36.6 0 a18.3 18.3 0 1 0 -36.6 0zM749.68 1429.18 a18.3 18.3 0 1 0 36.6 0 a18.3 18.3 0 1 0 -36.6 0zM1066.65 1429.18 a18.3 18.3 0 1 0 36.6 0 a18.3 18.3 0 1 0 -36.6 0zM1066.65 1612.18 a18.3 18.3 0 1 0 36.6 0 a18.3 18.3 0 1 0 -36.6 0zM908.17 1703.68 a18.3 18.3 0 1 0 36.6 0 a18.3 18.3 0 1 0 -36.6 0zM749.68 1612.18 a18.3 18.3 0 1 0 36.6 0 a18.3 18.3 0 1 0 -36.6 0zM908.17 1886.68 a18.3 18.3 0 1 0 36.6 0 a18.3 18.3 0 1 0 -36.6 0zM1066.65 1978.18 a18.3 18.3 0 1 0 36.6 0 a18.3 18.3 0 1 0 -36.6 0zM1066.65 2161.18 a18.3 18.3 0 1 0 36.6 0 a18.3 18.3 0 1 0 -36.6 0zM908.17 2252.68 a18.3 18.3 0 1 0 36.6 0 a18.3 18.3 0 1 0 -36.6 0zM908.17 2435.68 a18.3 18.3 0 1 0 36.6 0 a18.3 18.3 0 1 0 -36.6 0zM749.68 2527.18 a18.3 18.3 0 1 0 36.6 0 a18.3 18.3 0 1 0 -36.6 0zM591.19 2435.68 a18.3 18.3 0 1 0 36.6 0 a18.3 18.3 0 1 0 -36.6 0zM1225.14 239.68 a18.3 18.3 0 1 0 36.6 0 a18.3 18.3 0 1 0 -36.6 0zM1383.63 331.18 a18.3 18.3 0 1 0 36.6 0 a18.3 18.3 0 1 0 -36.6 0zM1383.63 514.18 a18.3 18.3 0 1 0 36.6 0 a18.3 18.3 0 1 0 -36.6 0zM1225.14 605.68 a18.3 18.3 0 1 0 36.6 0 a18.3 18.3 0 1 0 -36.6 0zM1225.14 2252.68 a18.3 18.3 0 1 0 36.6 0 a18.3 18.3 0 1 0 -36.6 0zM1225.14 2435.68 a18.3 18.3 0 1 0 36.6 0 a18.3 18.3 0 1 0 -36.6 0zM1066.65 2527.18 a18.3 18.3 0 1 0 36.6 0 a18.3 18.3 0 1 0 -36.6 0zM1542.11 239.68 a18.3 18.3 0 1 0 36.6 0 a18.3 18.3 0 1 0 -36.6 0zM1700.6 331.18 a18.3 18.3 0 1 0 36.6 0 a18.3 18.3 0 1 0 -36.6 0zM1700.6 514.18 a18.3 18.3 0 1 0 36.6 0 a18.3 18.3 0 1 0 -36.6 0zM1542.11 605.68 a18.3 18.3 0 1 0 36.6 0 a18.3 18.3 0 1 0 -36.6 0zM1383.63 1063.18 a18.3 18.3 0 1 0 36.6 0 a18.3 18.3 0 1 0 -36.6 0zM1542.11 1154.68 a18.3 18.3 0 1 0 36.6 0 a18.3 18.3 0 1 0 -36.6 0zM1542.11 1337.68 a18.3 18.3 0 1 0 36.6 0 a18.3 18.3 0 1 0 -36.6 0zM1383.63 1429.18 a18.3 18.3 0 1 0 36.6 0 a18.3 18.3 0 1 0 -36.6 0zM1225.14 1337.68 a18.3 18.3 0 1 0 36.6 0 a18.3 18.3 0 1 0 -36.6 0zM1225.14 1154.68 a18.3 18.3 0 1 0 36.6 0 a18.3 18.3 0 1 0 -36.6 0zM1383.63 1612.18 a18.3 18.3 0 1 0 36.6 0 a18.3 18.3 0 1 0 -36.6 0zM1542.11 1703.68 a18.3 18.3 0 1 0 36.6 0 a18.3 18.3 0 1 0 -36.6 0zM1542.11 1886.68 a18.3 18.3 0 1 0 36.6 0 a18.3 18.3 0 1 0 -36.6 0zM1383.63 1978.18 a18.3 18.3 0 1 0 36.6 0 a18.3 18.3 0 1 0 -36.6 0zM1225.14 1886.68 a18.3 18.3 0 1 0 36.6 0 a18.3 18.3 0 1 0 -36.6 0zM1225.14 1703.68 a18.3 18.3 0 1 0 36.6 0 a18.3 18.3 0 1 0 -36.6 0zM1383.63 2161.18 a18.3 18.3 0 1 0 36.6 0 a18.3 18.3 0 1 0 -36.6 0zM1542.11 2252.68 a18.3 18.3 0 1 0 36.6 0 a18.3 18.3 0 1 0 -36.6 0zM1542.11 2435.68 a18.3 18.3 0 1 0 36.6 0 a18.3 18.3 0 1 0 -36.6 0zM1383.63 2527.18 a18.3 18.3 0 1 0 36.6 0 a18.3 18.3 0 1 0 -36.6 0zM1700.6 -34.82 a18.3 18.3 0 1 0 36.6 0 a18.3 18.3 0 1 0 -36.6 0zM1859.09 56.68 a18.3 18.3 0 1 0 36.6 0 a18.3 18.3 0 1 0 -36.6 0zM1859.09 239.68 a18.3 18.3 0 1 0 36.6 0 a18.3 18.3 0 1 0 -36.6 0zM1542.11 56.68 a18.3 18.3 0 1 0 36.6 0 a18.3 18.3 0 1 0 -36.6 0zM1859.09 605.68 a18.3 18.3 0 1 0 36.6 0 a18.3 18.3 0 1 0 -36.6 0zM1859.09 788.68 a18.3 18.3 0 1 0 36.6 0 a18.3 18.3 0 1 0 -36.6 0zM1700.6 880.18 a18.3 18.3 0 1 0 36.6 0 a18.3 18.3 0 1 0 -36.6 0zM1542.11 788.68 a18.3 18.3 0 1 0 36.6 0 a18.3 18.3 0 1 0 -36.6 0zM2017.58 880.18 a18.3 18.3 0 1 0 36.6 0 a18.3 18.3 0 1 0 -36.6 0zM2017.58 1063.18 a18.3 18.3 0 1 0 36.6 0 a18.3 18.3 0 1 0 -36.6 0zM1859.09 1154.68 a18.3 18.3 0 1 0 36.6 0 a18.3 18.3 0 1 0 -36.6 0zM1700.6 1063.18 a18.3 18.3 0 1 0 36.6 0 a18.3 18.3 0 1 0 -36.6 0zM1859.09 1886.68 a18.3 18.3 0 1 0 36.6 0 a18.3 18.3 0 1 0 -36.6 0zM2017.58 1978.18 a18.3 18.3 0 1 0 36.6 0 a18.3 18.3 0 1 0 -36.6 0zM2017.58 2161.18 a18.3 18.3 0 1 0 36.6 0 a18.3 18.3 0 1 0 -36.6 0zM1859.09 2252.68 a18.3 18.3 0 1 0 36.6 0 a18.3 18.3 0 1 0 -36.6 0zM1700.6 2161.18 a18.3 18.3 0 1 0 36.6 0 a18.3 18.3 0 1 0 -36.6 0zM1700.6 1978.18 a18.3 18.3 0 1 0 36.6 0 a18.3 18.3 0 1 0 -36.6 0zM1859.09 2435.68 a18.3 18.3 0 1 0 36.6 0 a18.3 18.3 0 1 0 -36.6 0zM1700.6 2527.18 a18.3 18.3 0 1 0 36.6 0 a18.3 18.3 0 1 0 -36.6 0zM2017.58 514.18 a18.3 18.3 0 1 0 36.6 0 a18.3 18.3 0 1 0 -36.6 0zM2176.06 605.68 a18.3 18.3 0 1 0 36.6 0 a18.3 18.3 0 1 0 -36.6 0zM2176.06 788.68 a18.3 18.3 0 1 0 36.6 0 a18.3 18.3 0 1 0 -36.6 0zM2017.58 1612.18 a18.3 18.3 0 1 0 36.6 0 a18.3 18.3 0 1 0 -36.6 0zM2176.06 1703.68 a18.3 18.3 0 1 0 36.6 0 a18.3 18.3 0 1 0 -36.6 0zM2176.06 1886.68 a18.3 18.3 0 1 0 36.6 0 a18.3 18.3 0 1 0 -36.6 0zM1859.09 1703.68 a18.3 18.3 0 1 0 36.6 0 a18.3 18.3 0 1 0 -36.6 0zM2176.06 2252.68 a18.3 18.3 0 1 0 36.6 0 a18.3 18.3 0 1 0 -36.6 0zM2176.06 2435.68 a18.3 18.3 0 1 0 36.6 0 a18.3 18.3 0 1 0 -36.6 0zM2017.58 2527.18 a18.3 18.3 0 1 0 36.6 0 a18.3 18.3 0 1 0 -36.6 0zM2334.55 -34.82 a18.3 18.3 0 1 0 36.6 0 a18.3 18.3 0 1 0 -36.6 0zM2493.04 56.68 a18.3 18.3 0 1 0 36.6 0 a18.3 18.3 0 1 0 -36.6 0zM2493.04 239.68 a18.3 18.3 0 1 0 36.6 0 a18.3 18.3 0 1 0 -36.6 0zM2334.55 331.18 a18.3 18.3 0 1 0 36.6 0 a18.3 18.3 0 1 0 -36.6 0zM2176.06 239.68 a18.3 18.3 0 1 0 36.6 0 a18.3 18.3 0 1 0 -36.6 0zM2176.06 56.68 a18.3 18.3 0 1 0 36.6 0 a18.3 18.3 0 1 0 -36.6 0zM2651.52 331.18 a18.3 18.3 0 1 0 36.6 0 a18.3 18.3 0 1 0 -36.6 0zM2651.52 514.18 a18.3 18.3 0 1 0 36.6 0 a18.3 18.3 0 1 0 -36.6 0zM2493.04 605.68 a18.3 18.3 0 1 0 36.6 0 a18.3 18.3 0 1 0 -36.6 0zM2334.55 514.18 a18.3 18.3 0 1 0 36.6 0 a18.3 18.3 0 1 0 -36.6 0zM2334.55 1063.18 a18.3 18.3 0 1 0 36.6 0 a18.3 18.3 0 1 0 -36.6 0zM2493.04 1154.68 a18.3 18.3 0 1 0 36.6 0 a18.3 18.3 0 1 0 -36.6 0zM2493.04 1337.68 a18.3 18.3 0 1 0 36.6 0 a18.3 18.3 0 1 0 -36.6 0zM2334.55 1429.18 a18.3 18.3 0 1 0 36.6 0 a18.3 18.3 0 1 0 -36.6 0zM2176.06 1337.68 a18.3 18.3 0 1 0 36.6 0 a18.3 18.3 0 1 0 -36.6 0zM2176.06 1154.68 a18.3 18.3 0 1 0 36.6 0 a18.3 18.3 0 1 0 -36.6 0zM2651.52 -34.82 a18.3 18.3 0 1 0 36.6 0 a18.3 18.3 0 1 0 -36.6 0zM2810.01 56.68 a18.3 18.3 0 1 0 36.6 0 a18.3 18.3 0 1 0 -36.6 0zM2810.01 239.68 a18.3 18.3 0 1 0 36.6 0 a18.3 18.3 0 1 0 -36.6 0zM2810.01 605.68 a18.3 18.3 0 1 0 36.6 0 a18.3 18.3 0 1 0 -36.6 0zM2810.01 788.68 a18.3 18.3 0 1 0 36.6 0 a18.3 18.3 0 1 0 -36.6 0zM2651.52 880.18 a18.3 18.3 0 1 0 36.6 0 a18.3 18.3 0 1 0 -36.6 0zM2493.04 788.68 a18.3 18.3 0 1 0 36.6 0 a18.3 18.3 0 1 0 -36.6 0zM2651.52 1063.18 a18.3 18.3 0 1 0 36.6 0 a18.3 18.3 0 1 0 -36.6 0zM2810.01 1154.68 a18.3 18.3 0 1 0 36.6 0 a18.3 18.3 0 1 0 -36.6 0zM2810.01 1337.68 a18.3 18.3 0 1 0 36.6 0 a18.3 18.3 0 1 0 -36.6 0zM2651.52 1429.18 a18.3 18.3 0 1 0 36.6 0 a18.3 18.3 0 1 0 -36.6 0zM2810.01 1886.68 a18.3 18.3 0 1 0 36.6 0 a18.3 18.3 0 1 0 -36.6 0zM2968.5 1978.18 a18.3 18.3 0 1 0 36.6 0 a18.3 18.3 0 1 0 -36.6 0zM2968.5 2161.18 a18.3 18.3 0 1 0 36.6 0 a18.3 18.3 0 1 0 -36.6 0zM2810.01 2252.68 a18.3 18.3 0 1 0 36.6 0 a18.3 18.3 0 1 0 -36.6 0zM2651.52 2161.18 a18.3 18.3 0 1 0 36.6 0 a18.3 18.3 0 1 0 -36.6 0zM2651.52 1978.18 a18.3 18.3 0 1 0 36.6 0 a18.3 18.3 0 1 0 -36.6 0zM2810.01 2435.68 a18.3 18.3 0 1 0 36.6 0 a18.3 18.3 0 1 0 -36.6 0zM2651.52 2527.18 a18.3 18.3 0 1 0 36.6 0 a18.3 18.3 0 1 0 -36.6 0zM2493.04 2435.68 a18.3 18.3 0 1 0 36.6 0 a18.3 18.3 0 1 0 -36.6 0zM2493.04 2252.68 a18.3 18.3 0 1 0 36.6 0 a18.3 18.3 0 1 0 -36.6 0z" fill="rgba(35, 77, 86, 1)"></path><path d="M158.14 93.53L232.62 136.53L232.62 222.53L158.14 265.53L83.66 222.53L83.66 136.53zM83.66 222.53L158.14 265.53L158.14 351.53L83.66 394.53L9.18 351.53L9.18 265.53zM83.66 480.53L158.14 523.53L158.14 609.53L83.66 652.53L9.18 609.53L9.18 523.53zM83.66 996.53L158.14 1039.53L158.14 1125.53L83.66 1168.53L9.18 1125.53L9.18 1039.53zM158.14 1125.53L232.62 1168.53L232.62 1254.53L158.14 1297.53L83.66 1254.53L83.66 1168.53zM158.14 1383.53L232.62 1426.53L232.62 1512.53L158.14 1555.53L83.66 1512.53L83.66 1426.53zM158.14 1641.53L232.62 1684.53L232.62 1770.53L158.14 1813.53L83.66 1770.53L83.66 1684.53zM232.62 -35.47L307.1 7.53L307.1 93.53L232.62 136.53L158.14 93.53L158.14 7.53zM307.1 867.53L381.58 910.53L381.58 996.53L307.1 1039.53L232.62 996.53L232.62 910.53zM232.62 1254.53L307.1 1297.53L307.1 1383.53L232.62 1426.53L158.14 1383.53L158.14 1297.53zM307.1 1383.53L381.58 1426.53L381.58 1512.53L307.1 1555.53L232.62 1512.53L232.62 1426.53zM232.62 1770.53L307.1 1813.53L307.1 1899.53L232.62 1942.53L158.14 1899.53L158.14 1813.53zM232.62 2028.53L307.1 2071.53L307.1 2157.53L232.62 2200.53L158.14 2157.53L158.14 2071.53zM307.1 2157.53L381.58 2200.53L381.58 2286.53L307.1 2329.53L232.62 2286.53L232.62 2200.53zM456.06 93.53L530.54 136.53L530.54 222.53L456.06 265.53L381.58 222.53L381.58 136.53zM381.58 222.53L456.06 265.53L456.06 351.53L381.58 394.53L307.1 351.53L307.1 265.53zM381.58 480.53L456.06 523.53L456.06 609.53L381.58 652.53L307.1 609.53L307.1 523.53zM456.06 867.53L530.54 910.53L530.54 996.53L456.06 1039.53L381.58 996.53L381.58 910.53zM381.58 1254.53L456.06 1297.53L456.06 1383.53L381.58 1426.53L307.1 1383.53L307.1 1297.53zM456.06 1383.53L530.54 1426.53L530.54 1512.53L456.06 1555.53L381.58 1512.53L381.58 1426.53zM381.58 1512.53L456.06 1555.53L456.06 1641.53L381.58 1684.53L307.1 1641.53L307.1 1555.53zM456.06 1641.53L530.54 1684.53L530.54 1770.53L456.06 1813.53L381.58 1770.53L381.58 1684.53zM381.58 1770.53L456.06 1813.53L456.06 1899.53L381.58 1942.53L307.1 1899.53L307.1 1813.53zM456.06 1899.53L530.54 1942.53L530.54 2028.53L456.06 2071.53L381.58 2028.53L381.58 1942.53zM530.54 -35.47L605.02 7.53L605.02 93.53L530.54 136.53L456.06 93.53L456.06 7.53zM530.54 222.53L605.02 265.53L605.02 351.53L530.54 394.53L456.06 351.53L456.06 265.53zM530.54 738.53L605.02 781.53L605.02 867.53L530.54 910.53L456.06 867.53L456.06 781.53zM530.54 1512.53L605.02 1555.53L605.02 1641.53L530.54 1684.53L456.06 1641.53L456.06 1555.53zM605.02 1641.53L679.5 1684.53L679.5 1770.53L605.02 1813.53L530.54 1770.53L530.54 1684.53zM605.02 1899.53L679.5 1942.53L679.5 2028.53L605.02 2071.53L530.54 2028.53L530.54 1942.53zM530.54 2028.53L605.02 2071.53L605.02 2157.53L530.54 2200.53L456.06 2157.53L456.06 2071.53zM753.98 93.53L828.46 136.53L828.46 222.53L753.98 265.53L679.5 222.53L679.5 136.53zM753.98 1125.53L828.46 1168.53L828.46 1254.53L753.98 1297.53L679.5 1254.53L679.5 1168.53zM753.98 1641.53L828.46 1684.53L828.46 1770.53L753.98 1813.53L679.5 1770.53L679.5 1684.53zM753.98 2157.53L828.46 2200.53L828.46 2286.53L753.98 2329.53L679.5 2286.53L679.5 2200.53zM828.46 480.53L902.94 523.53L902.94 609.53L828.46 652.53L753.98 609.53L753.98 523.53zM828.46 738.53L902.94 781.53L902.94 867.53L828.46 910.53L753.98 867.53L753.98 781.53zM902.94 1125.53L977.42 1168.53L977.42 1254.53L902.94 1297.53L828.46 1254.53L828.46 1168.53zM828.46 1254.53L902.94 1297.53L902.94 1383.53L828.46 1426.53L753.98 1383.53L753.98 1297.53zM902.94 1641.53L977.42 1684.53L977.42 1770.53L902.94 1813.53L828.46 1770.53L828.46 1684.53zM902.94 1899.53L977.42 1942.53L977.42 2028.53L902.94 2071.53L828.46 2028.53L828.46 1942.53zM828.46 2028.53L902.94 2071.53L902.94 2157.53L828.46 2200.53L753.98 2157.53L753.98 2071.53zM977.42 222.53L1051.9 265.53L1051.9 351.53L977.42 394.53L902.94 351.53L902.94 265.53zM977.42 480.53L1051.9 523.53L1051.9 609.53L977.42 652.53L902.94 609.53L902.94 523.53zM1051.9 867.53L1126.38 910.53L1126.38 996.53L1051.9 1039.53L977.42 996.53L977.42 910.53zM1051.9 1125.53L1126.38 1168.53L1126.38 1254.53L1051.9 1297.53L977.42 1254.53L977.42 1168.53zM1051.9 1641.53L1126.38 1684.53L1126.38 1770.53L1051.9 1813.53L977.42 1770.53L977.42 1684.53zM977.42 1770.53L1051.9 1813.53L1051.9 1899.53L977.42 1942.53L902.94 1899.53L902.94 1813.53zM1126.38 -35.47L1200.86 7.53L1200.86 93.53L1126.38 136.53L1051.9 93.53L1051.9 7.53zM1200.86 867.53L1275.34 910.53L1275.34 996.53L1200.86 1039.53L1126.38 996.53L1126.38 910.53zM1200.86 1125.53L1275.34 1168.53L1275.34 1254.53L1200.86 1297.53L1126.38 1254.53L1126.38 1168.53zM1126.38 1512.53L1200.86 1555.53L1200.86 1641.53L1126.38 1684.53L1051.9 1641.53L1051.9 1555.53zM1126.38 1770.53L1200.86 1813.53L1200.86 1899.53L1126.38 1942.53L1051.9 1899.53L1051.9 1813.53zM1200.86 1899.53L1275.34 1942.53L1275.34 2028.53L1200.86 2071.53L1126.38 2028.53L1126.38 1942.53zM1126.38 2028.53L1200.86 2071.53L1200.86 2157.53L1126.38 2200.53L1051.9 2157.53L1051.9 2071.53zM1200.86 2157.53L1275.34 2200.53L1275.34 2286.53L1200.86 2329.53L1126.38 2286.53L1126.38 2200.53zM1275.34 222.53L1349.83 265.53L1349.83 351.53L1275.34 394.53L1200.86 351.53L1200.86 265.53zM1349.83 609.53L1424.31 652.53L1424.31 738.53L1349.83 781.53L1275.34 738.53L1275.34 652.53zM1349.83 867.53L1424.31 910.53L1424.31 996.53L1349.83 1039.53L1275.34 996.53L1275.34 910.53zM1275.34 996.53L1349.83 1039.53L1349.83 1125.53L1275.34 1168.53L1200.86 1125.53L1200.86 1039.53zM1349.83 1125.53L1424.31 1168.53L1424.31 1254.53L1349.83 1297.53L1275.34 1254.53L1275.34 1168.53zM1349.83 1383.53L1424.31 1426.53L1424.31 1512.53L1349.83 1555.53L1275.34 1512.53L1275.34 1426.53zM1349.83 1641.53L1424.31 1684.53L1424.31 1770.53L1349.83 1813.53L1275.34 1770.53L1275.34 1684.53zM1424.31 -35.47L1498.79 7.53L1498.79 93.53L1424.31 136.53L1349.83 93.53L1349.83 7.53zM1498.79 93.53L1573.27 136.53L1573.27 222.53L1498.79 265.53L1424.31 222.53L1424.31 136.53zM1424.31 222.53L1498.79 265.53L1498.79 351.53L1424.31 394.53L1349.83 351.53L1349.83 265.53zM1498.79 351.53L1573.27 394.53L1573.27 480.53L1498.79 523.53L1424.31 480.53L1424.31 394.53zM1498.79 609.53L1573.27 652.53L1573.27 738.53L1498.79 781.53L1424.31 738.53L1424.31 652.53zM1498.79 867.53L1573.27 910.53L1573.27 996.53L1498.79 1039.53L1424.31 996.53L1424.31 910.53zM1424.31 1512.53L1498.79 1555.53L1498.79 1641.53L1424.31 1684.53L1349.83 1641.53L1349.83 1555.53zM1424.31 1770.53L1498.79 1813.53L1498.79 1899.53L1424.31 1942.53L1349.83 1899.53L1349.83 1813.53zM1424.31 2028.53L1498.79 2071.53L1498.79 2157.53L1424.31 2200.53L1349.83 2157.53L1349.83 2071.53zM1573.27 -35.47L1647.75 7.53L1647.75 93.53L1573.27 136.53L1498.79 93.53L1498.79 7.53zM1647.75 93.53L1722.23 136.53L1722.23 222.53L1647.75 265.53L1573.27 222.53L1573.27 136.53zM1573.27 222.53L1647.75 265.53L1647.75 351.53L1573.27 394.53L1498.79 351.53L1498.79 265.53zM1573.27 480.53L1647.75 523.53L1647.75 609.53L1573.27 652.53L1498.79 609.53L1498.79 523.53zM1647.75 1125.53L1722.23 1168.53L1722.23 1254.53L1647.75 1297.53L1573.27 1254.53L1573.27 1168.53zM1647.75 1383.53L1722.23 1426.53L1722.23 1512.53L1647.75 1555.53L1573.27 1512.53L1573.27 1426.53zM1573.27 1512.53L1647.75 1555.53L1647.75 1641.53L1573.27 1684.53L1498.79 1641.53L1498.79 1555.53zM1647.75 1641.53L1722.23 1684.53L1722.23 1770.53L1647.75 1813.53L1573.27 1770.53L1573.27 1684.53zM1573.27 1770.53L1647.75 1813.53L1647.75 1899.53L1573.27 1942.53L1498.79 1899.53L1498.79 1813.53zM1796.71 93.53L1871.19 136.53L1871.19 222.53L1796.71 265.53L1722.23 222.53L1722.23 136.53zM1796.71 351.53L1871.19 394.53L1871.19 480.53L1796.71 523.53L1722.23 480.53L1722.23 394.53zM1722.23 738.53L1796.71 781.53L1796.71 867.53L1722.23 910.53L1647.75 867.53L1647.75 781.53zM1796.71 867.53L1871.19 910.53L1871.19 996.53L1796.71 1039.53L1722.23 996.53L1722.23 910.53zM1722.23 996.53L1796.71 1039.53L1796.71 1125.53L1722.23 1168.53L1647.75 1125.53L1647.75 1039.53zM1722.23 1254.53L1796.71 1297.53L1796.71 1383.53L1722.23 1426.53L1647.75 1383.53L1647.75 1297.53zM1722.23 1512.53L1796.71 1555.53L1796.71 1641.53L1722.23 1684.53L1647.75 1641.53L1647.75 1555.53zM1722.23 1770.53L1796.71 1813.53L1796.71 1899.53L1722.23 1942.53L1647.75 1899.53L1647.75 1813.53zM1945.67 93.53L2020.15 136.53L2020.15 222.53L1945.67 265.53L1871.19 222.53L1871.19 136.53zM1871.19 738.53L1945.67 781.53L1945.67 867.53L1871.19 910.53L1796.71 867.53L1796.71 781.53zM1945.67 867.53L2020.15 910.53L2020.15 996.53L1945.67 1039.53L1871.19 996.53L1871.19 910.53zM1871.19 1254.53L1945.67 1297.53L1945.67 1383.53L1871.19 1426.53L1796.71 1383.53L1796.71 1297.53zM2094.63 93.53L2169.11 136.53L2169.11 222.53L2094.63 265.53L2020.15 222.53L2020.15 136.53zM2094.63 609.53L2169.11 652.53L2169.11 738.53L2094.63 781.53L2020.15 738.53L2020.15 652.53zM2020.15 738.53L2094.63 781.53L2094.63 867.53L2020.15 910.53L1945.67 867.53L1945.67 781.53zM2020.15 996.53L2094.63 1039.53L2094.63 1125.53L2020.15 1168.53L1945.67 1125.53L1945.67 1039.53zM2094.63 1899.53L2169.11 1942.53L2169.11 2028.53L2094.63 2071.53L2020.15 2028.53L2020.15 1942.53zM2169.11 -35.47L2243.59 7.53L2243.59 93.53L2169.11 136.53L2094.63 93.53L2094.63 7.53zM2169.11 222.53L2243.59 265.53L2243.59 351.53L2169.11 394.53L2094.63 351.53L2094.63 265.53zM2169.11 738.53L2243.59 781.53L2243.59 867.53L2169.11 910.53L2094.63 867.53L2094.63 781.53zM2243.59 867.53L2318.07 910.53L2318.07 996.53L2243.59 1039.53L2169.11 996.53L2169.11 910.53zM2243.59 1383.53L2318.07 1426.53L2318.07 1512.53L2243.59 1555.53L2169.11 1512.53L2169.11 1426.53zM2169.11 1770.53L2243.59 1813.53L2243.59 1899.53L2169.11 1942.53L2094.63 1899.53L2094.63 1813.53zM2243.59 2157.53L2318.07 2200.53L2318.07 2286.53L2243.59 2329.53L2169.11 2286.53L2169.11 2200.53zM2318.07 222.53L2392.55 265.53L2392.55 351.53L2318.07 394.53L2243.59 351.53L2243.59 265.53zM2318.07 738.53L2392.55 781.53L2392.55 867.53L2318.07 910.53L2243.59 867.53L2243.59 781.53zM2318.07 1254.53L2392.55 1297.53L2392.55 1383.53L2318.07 1426.53L2243.59 1383.53L2243.59 1297.53zM2392.55 1641.53L2467.03 1684.53L2467.03 1770.53L2392.55 1813.53L2318.07 1770.53L2318.07 1684.53zM2318.07 1770.53L2392.55 1813.53L2392.55 1899.53L2318.07 1942.53L2243.59 1899.53L2243.59 1813.53zM2392.55 2157.53L2467.03 2200.53L2467.03 2286.53L2392.55 2329.53L2318.07 2286.53L2318.07 2200.53zM2467.03 1254.53L2541.51 1297.53L2541.51 1383.53L2467.03 1426.53L2392.55 1383.53L2392.55 1297.53zM2467.03 1512.53L2541.51 1555.53L2541.51 1641.53L2467.03 1684.53L2392.55 1641.53L2392.55 1555.53zM2467.03 2028.53L2541.51 2071.53L2541.51 2157.53L2467.03 2200.53L2392.55 2157.53L2392.55 2071.53zM2615.99 -35.47L2690.47 7.53L2690.47 93.53L2615.99 136.53L2541.51 93.53L2541.51 7.53zM2690.47 93.53L2764.95 136.53L2764.95 222.53L2690.47 265.53L2615.99 222.53L2615.99 136.53zM2615.99 222.53L2690.47 265.53L2690.47 351.53L2615.99 394.53L2541.51 351.53L2541.51 265.53zM2690.47 351.53L2764.95 394.53L2764.95 480.53L2690.47 523.53L2615.99 480.53L2615.99 394.53zM2615.99 738.53L2690.47 781.53L2690.47 867.53L2615.99 910.53L2541.51 867.53L2541.51 781.53zM2690.47 1383.53L2764.95 1426.53L2764.95 1512.53L2690.47 1555.53L2615.99 1512.53L2615.99 1426.53zM2615.99 1512.53L2690.47 1555.53L2690.47 1641.53L2615.99 1684.53L2541.51 1641.53L2541.51 1555.53zM2764.95 738.53L2839.43 781.53L2839.43 867.53L2764.95 910.53L2690.47 867.53L2690.47 781.53zM2839.43 1641.53L2913.91 1684.53L2913.91 1770.53L2839.43 1813.53L2764.95 1770.53L2764.95 1684.53zM2913.91 -35.47L2988.39 7.53L2988.39 93.53L2913.91 136.53L2839.43 93.53L2839.43 7.53zM2988.39 351.53L3062.87 394.53L3062.87 480.53L2988.39 523.53L2913.91 480.53L2913.91 394.53zM2988.39 867.53L3062.87 910.53L3062.87 996.53L2988.39 1039.53L2913.91 996.53L2913.91 910.53zM2913.91 1512.53L2988.39 1555.53L2988.39 1641.53L2913.91 1684.53L2839.43 1641.53L2839.43 1555.53zM2913.91 2028.53L2988.39 2071.53L2988.39 2157.53L2913.91 2200.53L2839.43 2157.53L2839.43 2071.53z" stroke="rgba(181, 33, 91, 1)" stroke-width="2"></path></g><defs><mask id="SvgjsMask1235"><rect width="2840" height="2160" fill="#ffffff"></rect></mask></defs></svg>